<?xml version="1.0" encoding="utf-8"?>
<!-- Svg Vector Icons : http://www.onlinewebfonts.com/icon -->
<!DOCTYPE svg PUBLIC "-//W3C//DTD SVG 1.1//EN" "http://www.w3.org/Graphics/SVG/1.1/DTD/svg11.dtd">
<svg version="1.1" xmlns="http://www.w3.org/2000/svg" xmlns:xlink="http://www.w3.org/1999/xlink" x="0px" y="0px" viewBox="0 0 1000 1000" enable-background="new 0 0 1000 1000" xml:space="preserve">
<metadata> Svg Vector Icons : http://www.onlinewebfonts.com/icon </metadata>
<g><g transform="translate(0.000000,404.000000) scale(0.100000,-0.100000)"><path d="M6899,3175.7c-427.8-233-499.8-821.8-139.8-1139.5c355.8-313.5,906.5-220.3,1097.1,182.1c152.5,326.2,55.1,711.7-237.2,927.7C7453.9,3268.9,7098.1,3285.9,6899,3175.7z"/><path d="M4903.8,2684.3C4183.7,2527.6,3679.6,2231.1,3184,1672c-538-614.2-571.9-1296.2-89-1732.5c334.6-300.8,787.9-444.8,1885-597.3c279.6-42.4,525.3-89,542.2-105.9c17-16.9-63.5-190.6-182.1-385.5c-682-1118.3-906.5-2151.9-559.2-2545.8c114.4-135.5,169.4-84.7,241.5,228.8c135.6,605.7,529.5,1275,1211.5,2067.1c398.2,461.7,525.3,698.9,478.7,902.3C6666-272.3,6577.1-136.8,6386.4-9.7C6145,155.5,5950.1,219,5086,439.3c-796.4,199.1-974.3,258.4-974.3,313.5c0,110.1,542.2,440.6,804.8,495.6c80.5,12.7,177.9,33.9,211.8,46.6c46.6,12.7,76.2-38.1,114.4-194.9c93.2-381.2,398.2-698.9,770.9-804.8c228.8-63.5,783.7-50.8,1080.2,25.4c567.6,148.3,1380.9,673.5,1380.9,898c0,122.9-105.9,122.9-766.7-16.9c-605.8-122.8-1177.6-152.5-1380.9-63.5c-118.6,46.6-139.8,80.5-139.8,203.3c0,76.2,46.6,233,101.6,343.1c177.9,351.6,161,516.8-72,749.8C5916.2,2735.2,5509.6,2811.4,4903.8,2684.3z"/><path d="M8707.7,1083.2c-182.1-80.5-622.7-567.6-817.5-902.3c-169.4-288-338.9-686.2-432.1-1016.6c-46.6-156.7-72-177.9-211.8-203.3c-643.9-110.1-1321.6-771-1508-1478.3c-67.8-254.2-76.2-775.2-12.7-1042.1c207.6-906.5,1105.6-1609.7,2050.2-1609.7c1279.3,0,2291.6,1164.9,2101,2414.5c-131.3,889.6-830.2,1597-1711.3,1745.2c-156.7,25.4-283.8,67.8-283.8,97.4c0,76.2,326.2,728.6,474.4,944.6c72,110.1,258.4,326.2,406.6,482.9c292.3,305,347.4,461.7,194.9,571.9C8868.7,1155.2,8868.7,1155.2,8707.7,1083.2z M8495.9-1373.7c1139.5-559.2,1389.4-2037.5,487.1-2880.5C7949.5-5224.2,6289-4643.9,6060.3-3237.5c-118.6,715.8,292.3,1512.2,940.4,1834.2c144,72,279.6,131.3,305,131.3c29.6,0,42.4-127.1,33.9-381.2c-21.2-466,67.8-906.5,245.7-1215.7c118.6-203.3,199.1-296.5,233-258.4c8.5,4.2-21.2,165.2-67.8,351.6c-110.2,466-97.5,1173.4,29.6,1541.9C7809.7-1140.7,8157.1-1208.5,8495.9-1373.7z"/><path d="M1680.3-1043.3c-584.6-139.8-1092.9-546.5-1355.5-1084.4C-81.9-2953.7,70.6-3872.9,722.9-4538c923.4-931.9,2465.3-809.1,3219.3,262.6c245.7,351.6,347.4,660.8,372.8,1122.5c29.7,639.6-186.4,1190.3-635.4,1605.4C3150.1-1056,2404.6-865.4,1680.3-1043.3z M2815.5-1318.6c300.8-110.2,631.2-372.8,834.5-665c521-745.5,355.8-1842.7-368.5-2384.8C2375-5054.7,1116.9-4741.3,634-3712C320.5-3042.7,468.8-2267.5,1011-1721C1502.3-1225.4,2171.6-1072.9,2815.5-1318.6z"/></g></g>
</svg>