<?xml version="1.0" encoding="utf-8"?>
<!-- Svg Vector Icons : http://www.onlinewebfonts.com/icon -->
<!DOCTYPE svg PUBLIC "-//W3C//DTD SVG 1.1//EN" "http://www.w3.org/Graphics/SVG/1.1/DTD/svg11.dtd">
<svg version="1.1" xmlns="http://www.w3.org/2000/svg" xmlns:xlink="http://www.w3.org/1999/xlink" x="0px" y="0px" viewBox="0 0 1000 1000" enable-background="new 0 0 1000 1000" xml:space="preserve">
<metadata> Svg Vector Icons : http://www.onlinewebfonts.com/icon </metadata>
<g><path d="M332.9,364.7c11.8,5.2,2.4-24.9-3-32.6c-12.6-17.8-3.7-83.6,48.1-133.2c51.8-49.6,97-88.1,45.9-176.9c-12.5-21.7-21.5-10.4-22.9,4.4c-1.5,14.8,0,55.5-35.5,85.8c-35.5,30.3-90.3,79.9-102.1,136.9C251.5,306.2,313,356,332.9,364.7z"/><path d="M504.6,364.7c11.8,5.2,2.4-24.9-3-32.6c-12.6-17.8-3.7-83.6,48.1-133.2c51.8-49.6,97-88.1,45.9-176.9c-12.5-21.7-21.5-10.4-22.9,4.4c-1.5,14.8,0,55.5-35.5,85.8c-35.5,30.3-90.3,79.9-102.1,136.9C423.2,306.2,484.6,356,504.6,364.7z"/><path d="M884.3,480.9h-68.1c0,0,0,0,0,0c0-31.1,0-62.3,0-62.3H469.6h-59.4H63.7c0,0,0,31.2,0,62.3c0,241.4,204.4,377.7,263.8,377.7c26.3,0,86.6,0,86.6,0h51.6c0,0,60.4,0,86.6,0c29.1,0,93-32.8,150.6-94.5c157.2-1.4,253.3-121.3,253.3-186.8C956.3,543.6,956.3,480.9,884.3,480.9z M751,702.3c29.4-45.8,52.5-101,61.3-165.1h72.1c8.1,0,10.8,1.2,11,1.2l0,0c0.8,1,4.7,7.4,4.7,38.7C899.9,605.2,847.5,681.5,751,702.3z"/><path d="M819.6,909.2c-26.3,0-353.4,0-353.4,0h-52.6c0,0-327.1,0-353.4,0c-26.3,0-20.4,20.4,11.7,34.1c32.1,13.6,151.9,46.7,341.7,46.7h52.6c189.8,0,309.5-33.1,341.7-46.7C840,929.6,845.9,909.2,819.6,909.2z"/></g>
</svg>