<?xml version="1.0" standalone="no"?>
<!DOCTYPE svg PUBLIC "-//W3C//DTD SVG 20010904//EN"
 "http://www.w3.org/TR/2001/REC-SVG-20010904/DTD/svg10.dtd">
<svg version="1.0" xmlns="http://www.w3.org/2000/svg"
 width="973.000000pt" height="1280.000000pt" viewBox="0 0 973.000000 1280.000000"
 preserveAspectRatio="xMidYMid meet">
<g transform="translate(0.000000,1280.000000) scale(0.100000,-0.100000)"
fill="#000000" stroke="none">
<path d="M3794 12755 c-292 -99 -514 -404 -579 -794 -21 -123 -16 -354 10
-469 94 -420 412 -685 740 -617 139 29 244 87 352 193 320 315 415 890 217
1311 -89 191 -228 322 -401 380 -92 31 -243 29 -339 -4z"/>
<path d="M2553 12322 c-113 -40 -213 -144 -282 -293 -63 -135 -76 -201 -75
-374 0 -135 3 -158 27 -231 78 -234 256 -333 442 -245 256 119 403 562 294
885 -71 211 -239 318 -406 258z"/>
<path d="M1603 11894 c-102 -49 -201 -180 -249 -329 -35 -106 -44 -287 -20
-388 29 -124 97 -226 180 -270 62 -32 155 -30 225 7 78 40 152 121 200 219 52
107 71 179 78 303 12 217 -75 413 -209 469 -57 23 -143 19 -205 -11z"/>
<path d="M813 11226 c-65 -21 -136 -79 -187 -154 -116 -170 -146 -417 -75
-608 32 -84 115 -166 187 -184 133 -32 267 58 352 235 135 283 66 640 -137
709 -55 19 -84 19 -140 2z"/>
<path d="M2560 10839 c-233 -23 -597 -156 -885 -324 -223 -131 -389 -259 -551
-428 -237 -247 -387 -523 -454 -838 -29 -132 -38 -411 -20 -568 39 -337 150
-704 350 -1156 75 -169 251 -522 500 -1000 445 -854 508 -1022 665 -1770 100
-480 166 -717 253 -915 130 -296 296 -487 517 -595 244 -120 482 -100 762 62
249 144 420 351 485 588 29 108 32 403 5 538 -55 270 -146 516 -407 1092 -293
646 -378 911 -388 1210 -14 425 115 766 496 1310 471 672 575 898 575 1245 -1
152 -15 238 -68 396 -245 739 -1029 1231 -1835 1153z"/>
<path d="M234 10369 c-41 -12 -126 -88 -157 -142 -34 -58 -77 -203 -77 -260 0
-59 34 -169 69 -222 55 -83 145 -109 229 -66 80 41 154 150 182 270 18 78 9
223 -19 286 -28 63 -85 122 -131 135 -41 12 -54 11 -96 -1z"/>
<path d="M5633 9616 c-349 -89 -579 -516 -533 -992 43 -460 313 -828 660 -900
259 -54 519 96 662 381 123 245 142 605 46 895 -96 292 -300 524 -528 600 -81
28 -232 35 -307 16z"/>
<path d="M6963 9155 c-142 -72 -223 -248 -223 -485 0 -262 107 -500 277 -616
112 -77 227 -80 330 -11 261 176 255 744 -12 1013 -89 90 -145 118 -245 122
-65 3 -82 0 -127 -23z"/>
<path d="M7937 8756 c-108 -40 -182 -146 -213 -304 -19 -99 -18 -179 5 -290
48 -232 197 -412 357 -430 139 -15 265 105 310 295 22 94 14 272 -16 368 -50
160 -155 302 -255 346 -60 27 -140 33 -188 15z"/>
<path d="M8764 8066 c-126 -55 -203 -228 -191 -431 8 -118 23 -181 70 -278 81
-170 226 -262 357 -227 63 16 150 106 179 183 121 325 -69 768 -328 767 -31
-1 -70 -7 -87 -14z"/>
<path d="M6739 7675 c-580 -91 -1087 -457 -1329 -960 -98 -203 -142 -384 -142
-580 0 -295 97 -541 372 -945 425 -625 477 -710 564 -913 94 -221 136 -417
137 -635 0 -330 -80 -588 -406 -1307 -220 -486 -304 -704 -364 -947 -91 -369
-61 -667 92 -896 156 -235 463 -430 741 -474 231 -36 532 105 714 335 193 242
289 512 447 1252 116 544 168 726 286 998 67 155 281 588 431 872 488 922 691
1422 779 1920 27 153 37 435 19 572 -70 564 -433 1054 -1037 1401 -252 144
-597 276 -804 306 -129 19 -379 20 -500 1z"/>
<path d="M9390 7213 c-98 -37 -157 -171 -147 -333 6 -102 30 -177 77 -247 96
-142 220 -168 317 -67 33 34 48 61 68 127 30 99 31 129 6 223 -37 144 -102
243 -184 283 -41 20 -104 26 -137 14z"/>
</g>
</svg>
