<?xml version="1.0" encoding="iso-8859-1"?>
<!-- Generator: Adobe Illustrator 18.0.0, SVG Export Plug-In . SVG Version: 6.00 Build 0)  -->
<!DOCTYPE svg PUBLIC "-//W3C//DTD SVG 1.1//EN" "http://www.w3.org/Graphics/SVG/1.1/DTD/svg11.dtd">
<svg version="1.1" id="Capa_1" xmlns="http://www.w3.org/2000/svg" xmlns:xlink="http://www.w3.org/1999/xlink" x="0px" y="0px"
	 viewBox="0 0 297 297" style="enable-background:new 0 0 297 297;" xml:space="preserve">
<g>
	<path d="M80.505,140.405H12.51c-5.689,0-10.302,4.613-10.302,10.302v135.99C2.207,292.387,6.82,297,12.51,297h67.995
		c5.689,0,10.302-4.613,10.302-10.302v-135.99C90.807,145.018,86.194,140.405,80.505,140.405z M70.203,276.395H22.812V161.01h47.391
		V276.395z"/>
	<path d="M182.498,106.407h-67.995c-5.689,0-10.302,4.613-10.302,10.302v169.988c0,5.689,4.613,10.302,10.302,10.302h67.995
		c5.689,0,10.302-4.613,10.302-10.302V116.71C192.8,111.02,188.187,106.407,182.498,106.407z M172.195,276.395h-47.391V127.012
		h47.391V276.395z"/>
	<path d="M284.49,55.411h-67.995c-5.689,0-10.302,4.613-10.302,10.302v220.984c0,5.689,4.613,10.302,10.302,10.302h67.995
		c5.689,0,10.302-4.613,10.302-10.302V65.713C294.793,60.024,290.18,55.411,284.49,55.411z M274.188,276.395h-47.391V76.016h47.391
		V276.395z"/>
	<path d="M198.815,7.248l-30.243-6.982c-5.548-1.278-11.076,2.177-12.357,7.721c-1.28,5.545,2.177,11.076,7.721,12.357l5.436,1.255
		L19.659,96.454c-5.09,2.544-7.152,8.733-4.608,13.822c1.805,3.611,5.443,5.697,9.223,5.697c1.548,0,3.121-0.35,4.599-1.09
		l152.073-76.037l-1.47,6.364c-1.28,5.545,2.177,11.076,7.721,12.357c0.781,0.18,1.559,0.266,2.327,0.266
		c4.689,0,8.929-3.222,10.03-7.986l6.982-30.243C207.816,14.06,204.359,8.529,198.815,7.248z"/>
</g>
<g>
</g>
<g>
</g>
<g>
</g>
<g>
</g>
<g>
</g>
<g>
</g>
<g>
</g>
<g>
</g>
<g>
</g>
<g>
</g>
<g>
</g>
<g>
</g>
<g>
</g>
<g>
</g>
<g>
</g>
</svg>
