<?xml version="1.0" encoding="utf-8"?>
<!-- Svg Vector Icons : http://www.onlinewebfonts.com/icon -->
<!DOCTYPE svg PUBLIC "-//W3C//DTD SVG 1.1//EN" "http://www.w3.org/Graphics/SVG/1.1/DTD/svg11.dtd">
<svg version="1.1" xmlns="http://www.w3.org/2000/svg" xmlns:xlink="http://www.w3.org/1999/xlink" x="0px" y="0px" viewBox="0 0 1000 1000" enable-background="new 0 0 1000 1000" xml:space="preserve">
<metadata> Svg Vector Icons : http://www.onlinewebfonts.com/icon </metadata>
<g><g transform="translate(0.000000,430.000000) scale(0.100000,-0.100000)"><path d="M2670.5,2498.2c-800.5-508.7-1460.9-927.2-1466.6-933c-11.5-9.6,96-97.9,136.3-111.3c19.2-5.8,574,240,1322.7,585.5c710.3,328.3,1297.7,591.3,1305.4,581.7c23-26.9,940.6-1733.5,940.6-1748.8c-1.9-11.5-1906.2-1044.3-2413-1307.3c-88.3-46.1-159.3-86.4-155.5-88.3c3.8-3.8,921.5,161.3,2040.6,366.7C5500.1,46.8,6431.1,215.7,6450.3,215.7c17.3,0,32.6,9.6,32.6,19.2c0,11.5-412.7,575.9-915.7,1253.5c-504.9,677.7-1034.7,1389.9-1178.7,1581.8l-261.1,351.3L2670.5,2498.2z"/><path d="M7586.8,2876.4c-712.2-138.2-1167.2-825.5-1017.4-1535.7c74.9-353.2,341.7-694.9,662.3-852.3c238-117.1,366.7-144,633.5-134.4c349.4,15.4,618.1,130.5,852.3,370.5c238,241.9,360.9,535.6,362.8,873.5c3.8,247.6-23,360.9-134.4,593.2C8707.9,2688.3,8128.1,2980.1,7586.8,2876.4z"/><path d="M7174-515.7c-677.6-72.9-1328.4-230.4-2466.8-593.2c-1501.2-478-1821.8-552.9-2430.3-570.1c-284.1-7.7-399.3-3.8-556.7,21.1c-460.7,76.8-865.8,272.6-1226.7,597L351.5-934.2L226.7-1059l-124.8-126.7l74.9-78.7c103.7-107.5,355.1-301.4,518.3-401.2c288-176.6,631.6-301.4,979-355.1c314.8-49.9,883.1-32.6,1247.8,36.5c493.4,94.1,833.1,188.1,1775.7,491.4c1476.2,474.2,2098.2,606.6,2948.6,627.7c735.3,17.3,1226.7-55.7,1844.8-272.6c136.3-48,253.4-90.2,263-92.1c21.1-5.8,149.7,291.8,140.1,322.5c-13.4,28.8-558.6,211.2-838.9,278.4c-430,101.7-599,119-1180.6,124.8C7579.1-500.3,7264.3-506.1,7174-515.7z"/><path d="M7327.6-1888.3c-464.6-53.8-614.3-76.8-902.2-134.4c-518.3-103.7-860-197.8-1804.5-501.1c-1378.3-441.5-1846.7-547.1-2438-549c-685.3-1.9-1172.9,176.6-1681.7,616.2l-155.5,136.3l-119-121c-63.4-65.3-117.1-126.7-117.1-136.3c0-23,199.6-201.6,355.1-318.7c560.6-418.5,1222.8-600.9,1965.8-537.5c595.1,51.8,1088.5,172.8,2343.9,577.8c1363,439.6,2046.4,585.5,2869.9,608.5c698.8,19.2,1330.3-78.7,1917.8-299.5c115.2-44.1,211.2-76.8,213.1-74.8c13.4,24.9,124.8,307.1,124.8,320.6c0,21.1-353.2,153.6-585.5,218.8c-220.8,61.4-504.9,122.9-748.7,159.3C8381.5-1894,7487-1869.1,7327.6-1888.3z"/><path d="M7385.2-3270.4c-562.5-51.8-1153.7-161.3-1727.7-322.5c-385.8-107.5-510.6-145.9-1341.9-412.7c-1124.9-360.9-1746.9-483.8-2286.3-456.9c-602.8,30.7-1071.2,222.7-1531.9,623.9l-142.1,124.8l-128.6-128.6L100-3971.1l124.8-115.2c284.1-259.2,671.9-491.4,998.2-600.9c312.9-103.7,518.3-134.4,921.5-134.4c645-1.9,1130.7,99.8,2338.2,485.7c1380.3,443.4,1867.8,568.2,2537.8,656.5c894.6,115.2,1729.6,36.5,2480.2-234.2c119-42.2,230.4-82.6,247.6-86.4c23-7.7,44.2,28.8,94.1,153.6c34.6,92.1,59.5,168.9,55.7,172.8c-17.3,17.3-389.7,147.8-547.1,193.9c-497.2,144-890.7,201.6-1447.5,209.2C7665.5-3266.6,7433.2-3266.6,7385.2-3270.4z"/></g></g>
</svg>